<?xml version="1.0" standalone="no"?>
<!DOCTYPE svg PUBLIC "-//W3C//DTD SVG 20010904//EN"
 "http://www.w3.org/TR/2001/REC-SVG-20010904/DTD/svg10.dtd">
<svg version="1.0" xmlns="http://www.w3.org/2000/svg"
 width="1592.000000pt" height="1592.000000pt" viewBox="0 0 1592.000000 1592.000000"
 preserveAspectRatio="xMidYMid meet">
<metadata>
Created by potrace 1.14, written by Peter Selinger 2001-2017
</metadata>
<g transform="translate(0.000000,1592.000000) scale(0.100000,-0.100000)"
fill="#000000" stroke="none">
<path d="M7636 12439 c-86 -12 -171 -33 -256 -64 -49 -17 -96 -25 -188 -29
-372 -19 -917 -143 -1187 -270 -438 -207 -780 -497 -976 -827 -30 -51 -54 -76
-92 -101 -145 -92 -361 -293 -471 -437 -121 -157 -225 -364 -281 -556 -52
-179 -68 -302 -71 -540 l-2 -220 -40 -85 c-82 -176 -105 -285 -105 -485 0
-169 18 -272 80 -449 39 -113 123 -284 153 -311 39 -36 59 4 60 120 l1 50 25
-60 25 -60 -17 -105 c-27 -165 -1 -379 64 -546 18 -44 70 -244 87 -329 l6 -31
-42 4 c-103 10 -221 -40 -300 -126 -105 -114 -167 -295 -176 -507 -11 -273 77
-682 186 -863 166 -276 396 -485 647 -587 59 -24 110 -47 114 -52 5 -4 43
-175 84 -380 42 -204 89 -409 105 -455 96 -284 217 -466 532 -805 221 -237
480 -452 839 -698 127 -86 228 -161 223 -164 -4 -4 -63 -20 -130 -35 l-122
-27 -40 21 c-22 11 -50 20 -62 20 -12 0 -481 -110 -1043 -244 -562 -134 -1057
-252 -1101 -261 -84 -18 -235 -73 -235 -85 0 -24 443 -277 745 -425 406 -199
692 -310 1180 -455 831 -246 1783 -333 2700 -244 416 40 906 134 1275 244 212
64 546 176 680 230 332 132 830 385 1127 570 138 86 141 89 123 100 -30 18
-172 60 -242 71 -40 7 -513 122 -1050 256 -538 133 -993 243 -1010 243 -18 0
-50 -11 -71 -24 l-38 -23 -102 24 c-56 13 -127 29 -157 36 l-55 12 190 129
c446 303 677 499 974 826 239 263 352 445 442 708 15 46 63 251 104 455 42
205 82 377 88 383 7 6 41 21 77 34 245 86 466 270 647 540 70 105 87 142 128
275 78 259 114 525 95 712 -13 123 -52 254 -106 350 -94 168 -262 250 -431
210 -51 -11 -63 -12 -63 -1 0 44 133 404 219 593 105 230 127 334 141 676 11
270 23 443 41 570 24 174 -9 367 -86 513 -39 74 -45 92 -45 146 0 176 -46 373
-124 531 -89 179 -211 316 -391 436 l-80 54 -3 125 c-3 157 -24 286 -68 420
-109 328 -325 567 -672 744 -133 67 -196 88 -324 105 -132 18 -144 -9 -36 -84
87 -61 161 -126 190 -168 l22 -32 -25 21 c-140 122 -438 260 -694 323 -79 19
-111 24 -310 56 -193 31 -319 70 -532 166 -84 38 -178 77 -210 88 -158 53
-411 80 -557 60z m2024 -2756 c68 -25 88 -27 220 -27 132 0 152 2 228 27 l83
28 45 -21 c44 -22 104 -82 129 -130 7 -14 22 -60 34 -102 11 -42 39 -116 62
-165 105 -225 152 -444 219 -1033 21 -192 45 -278 119 -430 82 -169 82 -172
81 -630 0 -222 -3 -413 -6 -425 -2 -11 -1 -135 4 -275 14 -389 3 -474 -123
-980 -70 -281 -129 -541 -205 -914 -77 -377 -94 -433 -176 -601 -90 -185 -225
-356 -499 -630 -247 -247 -461 -413 -985 -762 -360 -240 -552 -317 -872 -349
-160 -16 -179 -16 -333 0 -306 32 -495 106 -825 323 -589 388 -851 596 -1133
898 -225 240 -331 384 -408 551 -64 139 -87 220 -154 548 -83 406 -110 526
-205 916 -133 549 -124 482 -125 895 -1 202 -7 428 -15 515 -15 179 -4 431 30
658 20 138 60 303 83 349 l14 26 32 -68 c51 -111 119 -204 234 -321 l108 -112
-38 -68 c-35 -64 -36 -68 -12 -49 208 162 329 232 499 289 323 107 615 90
1300 -74 223 -54 272 -58 297 -23 28 37 6 156 -40 217 -82 106 -441 201 -895
236 -451 35 -780 -97 -1030 -414 l-47 -59 -24 74 c-34 104 -35 266 -2 358 45
128 134 235 272 327 91 60 420 227 549 278 52 21 325 100 605 177 521 141 647
183 930 308 334 149 580 311 701 463 l30 38 75 -14 c414 -79 773 -23 1024 159
33 24 62 44 65 44 3 1 39 -11 80 -26z m-5210 -2779 c35 -8 40 -16 63 -116 l15
-66 -41 29 c-75 54 -186 72 -217 35 -8 -11 4 -23 56 -55 l67 -42 -30 -19 c-65
-39 -99 -112 -112 -236 -25 -238 40 -478 186 -695 28 -41 58 -89 67 -107 21
-41 127 -158 175 -193 20 -15 52 -31 71 -36 36 -10 35 -6 64 -130 l14 -62 -36
14 c-155 65 -335 230 -469 430 -62 93 -81 136 -119 273 -101 369 -103 647 -6
838 29 57 76 110 117 132 22 13 86 15 135 6z m6956 -10 c102 -48 184 -256 184
-463 0 -179 -67 -520 -131 -659 -58 -129 -232 -340 -362 -441 -52 -39 -205
-127 -211 -120 -2 2 6 43 17 92 18 79 23 88 46 93 71 17 216 145 260 231 10
21 40 69 66 108 128 190 195 396 195 599 0 168 -29 258 -106 325 -41 37 -40
38 44 83 23 13 42 26 42 30 0 4 -12 15 -26 25 -23 14 -33 15 -81 5 -70 -15
-135 -56 -208 -133 l-58 -61 6 59 c11 120 25 160 63 184 93 57 195 74 260 43z
m-4362 -4645 c190 -98 360 -150 561 -174 234 -27 517 -13 708 36 138 35 326
116 485 209 l52 30 0 -25 c0 -28 -3 -27 147 -49 88 -14 352 -73 361 -81 8 -7
-31 -119 -62 -179 -48 -92 -116 -176 -188 -234 -217 -171 -542 -282 -942 -322
-144 -14 -491 -14 -636 0 -439 44 -835 202 -1000 402 -91 109 -133 191 -146
286 l-6 50 129 31 c71 17 179 39 241 48 l112 17 0 29 0 29 53 -32 c28 -17 87
-49 131 -71z"/>
<path d="M9310 7974 c-493 -43 -821 -127 -912 -233 -41 -48 -58 -98 -58 -169
0 -41 4 -54 22 -66 34 -24 68 -20 269 30 451 111 695 148 934 141 147 -4 185
-9 285 -35 201 -53 364 -135 526 -264 46 -37 84 -64 84 -60 0 17 -89 162 -143
233 -163 218 -383 353 -653 403 -85 16 -277 27 -354 20z"/>
<path d="M6245 7360 c-120 -13 -344 -64 -332 -76 2 -2 52 3 113 11 228 30 489
15 677 -39 112 -33 118 -33 71 5 -122 97 -277 126 -529 99z"/>
<path d="M9130 7355 c-74 -21 -148 -58 -190 -95 -40 -36 -48 -36 109 5 51 14
137 30 189 36 110 13 407 7 495 -11 92 -18 90 -6 -3 19 -140 38 -227 51 -390
56 -121 4 -167 2 -210 -10z"/>
<path d="M6096 7214 c-337 -52 -621 -233 -736 -468 -57 -118 -57 -120 -8 -196
95 -145 298 -325 453 -400 328 -160 678 -171 1000 -30 110 49 314 179 388 249
29 27 66 56 84 65 38 19 63 52 63 83 0 30 -75 213 -118 287 -39 67 -148 185
-225 244 -70 54 -178 107 -268 131 -175 48 -453 63 -633 35z m-41 -215 c-82
-91 -127 -241 -105 -352 35 -180 159 -305 340 -343 179 -37 375 63 454 231 71
148 55 302 -43 432 l-40 51 52 -15 c174 -51 339 -188 415 -344 67 -135 67
-128 -24 -218 -223 -218 -524 -331 -847 -318 -185 7 -323 51 -466 150 -71 48
-187 164 -252 249 l-59 79 31 62 c66 131 161 225 301 293 62 31 225 82 267 84
7 0 -3 -19 -24 -41z m282 2 c117 -54 85 -216 -46 -229 -47 -4 -53 -2 -85 30
-66 66 -55 161 24 200 44 22 55 22 107 -1z"/>
<path d="M9240 7223 c-261 -26 -417 -85 -571 -216 -120 -103 -164 -168 -270
-405 -23 -52 -25 -115 -3 -137 9 -8 30 -23 47 -32 17 -8 50 -35 74 -58 87 -87
323 -232 466 -285 239 -90 506 -91 764 -5 188 63 327 149 469 289 93 93 184
218 184 253 0 36 -61 159 -113 230 -138 185 -414 327 -707 363 -79 9 -260 11
-340 3z m552 -223 c183 -58 327 -173 403 -321 l39 -76 -39 -54 c-168 -236
-375 -375 -622 -419 -109 -20 -313 -8 -442 25 -215 56 -354 131 -504 275 l-99
96 31 76 c80 191 225 327 417 392 l75 25 -31 -39 c-74 -93 -111 -228 -90 -332
35 -181 159 -306 340 -344 210 -44 429 96 484 311 36 137 1 276 -96 381 l-41
45 44 -7 c24 -4 83 -19 131 -34z m-475 1 c79 -37 98 -125 39 -189 -32 -34 -38
-37 -91 -37 -51 0 -59 3 -85 32 -58 65 -44 159 30 195 44 22 55 22 107 -1z"/>
<path d="M8273 6393 c3 -115 1 -248 -4 -298 -30 -300 -15 -615 27 -573 3 3 19
100 36 215 38 258 45 539 15 658 -29 117 -59 205 -70 205 -7 0 -8 -69 -4 -207z"/>
<path d="M7236 5209 c-98 -86 -128 -191 -86 -302 12 -31 32 -70 45 -85 27 -33
229 -135 360 -184 50 -18 96 -39 104 -46 7 -7 32 -22 55 -34 34 -18 58 -22
141 -22 103 0 142 11 190 55 11 10 54 30 95 44 41 15 139 58 217 95 131 63
145 72 172 115 79 125 59 261 -52 361 -79 71 -84 62 -30 -52 30 -65 37 -90 37
-144 0 -73 -19 -120 -60 -147 -23 -15 -32 -15 -83 -4 -144 33 -159 30 -251
-55 -39 -36 -83 -69 -97 -75 -46 -17 -174 -22 -237 -9 -50 10 -68 21 -121 70
-104 96 -126 102 -267 69 -54 -12 -60 -12 -85 7 -37 27 -56 68 -61 130 -4 50
2 71 62 206 9 20 12 39 7 42 -5 3 -29 -13 -55 -35z"/>
<path d="M9037 4130 c-13 -11 -28 -31 -31 -44 -7 -30 -41 -41 -271 -90 -535
-116 -1098 -126 -1629 -30 -188 33 -395 83 -406 97 -5 7 -21 27 -36 45 -20 25
-33 32 -60 32 -67 0 -136 -59 -150 -128 -5 -26 -1 -36 25 -62 30 -31 32 -31
118 -29 67 2 112 -4 188 -24 252 -65 554 -109 866 -127 374 -22 842 24 1229
121 97 24 144 31 211 30 79 -2 89 0 115 22 37 32 37 83 -1 133 -54 70 -120 92
-168 54z"/>
<path d="M7363 3503 c-16 -41 54 -82 197 -115 131 -31 452 -33 575 -4 138 32
195 69 180 117 -6 19 -12 20 -118 12 -140 -10 -715 -10 -780 -1 -39 6 -49 5
-54 -9z"/>
</g>
</svg>
